<svg width="26" height="26" viewBox="0 0 26 26" fill="none" xmlns="http://www.w3.org/2000/svg">
<path d="M8.71429 5.14286C8.71429 5.65143 8.60857 6.13429 8.41714 6.57143H13C13.1894 6.57143 13.3711 6.64668 13.5051 6.78064C13.639 6.91459 13.7143 7.09627 13.7143 7.28571V10.1429H13C12.2422 10.1429 11.5155 10.4439 10.9797 10.9797C10.4439 11.5155 10.1429 12.2422 10.1429 13V13.7143H7.28571C7.09627 13.7143 6.91459 13.639 6.78064 13.5051C6.64668 13.3711 6.57143 13.1894 6.57143 13V8.41714C5.89741 8.7112 5.14906 8.79002 4.42857 8.64286V13C4.42857 13.7578 4.72959 14.4845 5.26541 15.0203C5.80123 15.5561 6.52795 15.8571 7.28571 15.8571H10.1429V18.7143C10.1429 19.472 10.4439 20.1988 10.9797 20.7346C11.5155 21.2704 12.2422 21.5714 13 21.5714H17.3571C17.21 20.8509 17.2888 20.1026 17.5829 19.4286H13C12.8106 19.4286 12.6289 19.3533 12.4949 19.2194C12.361 19.0854 12.2857 18.9037 12.2857 18.7143V15.8571H13C13.7578 15.8571 14.4845 15.5561 15.0203 15.0203C15.5561 14.4845 15.8571 13.7578 15.8571 13V12.2857H18.7143C18.9037 12.2857 19.0854 12.361 19.2194 12.4949C19.3533 12.6289 19.4286 12.8106 19.4286 13V17.5829C20.1026 17.2888 20.8509 17.21 21.5714 17.3571V13C21.5714 12.2422 21.2704 11.5155 20.7346 10.9797C20.1988 10.4439 19.472 10.1429 18.7143 10.1429H15.8571V7.28571C15.8571 6.52795 15.5561 5.80123 15.0203 5.26541C14.4845 4.72959 13.7578 4.42857 13 4.42857H8.64286C8.69048 4.66 8.71429 4.8981 8.71429 5.14286ZM13.7143 12.2857V13C13.7143 13.1894 13.639 13.3711 13.5051 13.5051C13.3711 13.639 13.1894 13.7143 13 13.7143H12.2857V13C12.2857 12.8106 12.361 12.6289 12.4949 12.4949C12.6289 12.361 12.8106 12.2857 13 12.2857H13.7143ZM7.28571 5.14286C7.28571 5.71118 7.05995 6.25622 6.65809 6.65809C6.25622 7.05995 5.71118 7.28571 5.14286 7.28571C4.57454 7.28571 4.02949 7.05995 3.62763 6.65809C3.22576 6.25622 3 5.71118 3 5.14286C3 4.57454 3.22576 4.02949 3.62763 3.62763C4.02949 3.22576 4.57454 3 5.14286 3C5.71118 3 6.25622 3.22576 6.65809 3.62763C7.05995 4.02949 7.28571 4.57454 7.28571 5.14286ZM23 20.8571C23 21.4255 22.7742 21.9705 22.3724 22.3724C21.9705 22.7742 21.4255 23 20.8571 23C20.2888 23 19.7438 22.7742 19.3419 22.3724C18.9401 21.9705 18.7143 21.4255 18.7143 20.8571C18.7143 20.2888 18.9401 19.7438 19.3419 19.3419C19.7438 18.9401 20.2888 18.7143 20.8571 18.7143C21.4255 18.7143 21.9705 18.9401 22.3724 19.3419C22.7742 19.7438 23 20.2888 23 20.8571ZM23 5.14286C23 5.71118 22.7742 6.25622 22.3724 6.65809C21.9705 7.05995 21.4255 7.28571 20.8571 7.28571C20.2888 7.28571 19.7438 7.05995 19.3419 6.65809C18.9401 6.25622 18.7143 5.71118 18.7143 5.14286C18.7143 4.57454 18.9401 4.02949 19.3419 3.62763C19.7438 3.22576 20.2888 3 20.8571 3C21.4255 3 21.9705 3.22576 22.3724 3.62763C22.7742 4.02949 23 4.57454 23 5.14286ZM7.28571 20.8571C7.28571 21.4255 7.05995 21.9705 6.65809 22.3724C6.25622 22.7742 5.71118 23 5.14286 23C4.57454 23 4.02949 22.7742 3.62763 22.3724C3.22576 21.9705 3 21.4255 3 20.8571C3 20.2888 3.22576 19.7438 3.62763 19.3419C4.02949 18.9401 4.57454 18.7143 5.14286 18.7143C5.71118 18.7143 6.25622 18.9401 6.65809 19.3419C7.05995 19.7438 7.28571 20.2888 7.28571 20.8571Z" fill="#9FC9B1"/>
</svg>
