<svg width="30" height="30" viewBox="0 0 30 30" fill="none" xmlns="http://www.w3.org/2000/svg">
<rect width="30" height="30" rx="15" fill="#D5D7DA" fill-opacity="0.3"/>
<path d="M14.5714 15.8571H9.92857C9.66548 15.8571 9.4451 15.7749 9.26743 15.6103C9.08977 15.4457 9.00062 15.2423 9 15C8.99938 14.7577 9.08853 14.5543 9.26743 14.3897C9.44634 14.2251 9.66672 14.1429 9.92857 14.1429H14.5714V9.85715C14.5714 9.61429 14.6606 9.41086 14.8389 9.24686C15.0171 9.08286 15.2375 9.00057 15.5 9C15.7625 8.99943 15.9832 9.08172 16.1621 9.24686C16.341 9.412 16.4298 9.61543 16.4286 9.85715V14.1429H21.0714C21.3345 14.1429 21.5552 14.2251 21.7335 14.3897C21.9118 14.5543 22.0006 14.7577 22 15C21.9994 15.2423 21.9102 15.446 21.7326 15.6111C21.5549 15.7763 21.3345 15.8583 21.0714 15.8571H16.4286V20.1429C16.4286 20.3857 16.3394 20.5894 16.1611 20.754C15.9829 20.9186 15.7625 21.0006 15.5 21C15.2375 20.9994 15.0171 20.9171 14.8389 20.7531C14.6606 20.5891 14.5714 20.3857 14.5714 20.1429V15.8571Z" fill="#2A2D2C" fill-opacity="0.5"/>
</svg>
