<svg width="17" height="17" viewBox="0 0 17 17" fill="none" xmlns="http://www.w3.org/2000/svg">
<g clip-path="url(#clip0_658_1655)">
<path d="M16.6752 2.65401C15.7993 0.083559 13.1716 -0.18698 13.3176 0.0835591C14.9234 1.70709 15.4951 4.41291 8.5001 4.41291C1.5053 4.41291 2.07682 1.70709 3.68266 0.0835591C3.82865 -0.187013 1.20092 0.083559 0.325025 2.65398C-0.287307 4.45083 0.908935 7.38931 4.41256 7.38931C7.04026 7.38931 8.5001 7.38931 8.5001 7.38931C8.5001 7.38931 9.95994 7.38931 12.5876 7.38931C16.0913 7.38934 17.2875 4.45087 16.6752 2.65401Z" fill="white"/>
<path d="M12.6631 6.87305H4.33713L1.16016 8.57179C1.16016 8.57179 1.21743 11.1755 3.70843 10.6908C4.33457 10.2942 4.60714 9.74967 4.60714 9.74967C4.56026 10.4072 4.3206 10.8363 4.08522 11.1063C4.63622 11.8718 5.70829 13.515 5.70829 14.7142C5.70832 16.3278 7.04338 17.0001 8.50011 17.0001C9.95683 17.0001 11.2919 16.3278 11.2919 14.7142C11.2919 13.5301 12.336 11.9152 12.8927 11.1373C12.6492 10.8699 12.3932 10.4316 12.3444 9.74963C12.3444 9.74963 12.6141 10.2874 13.232 10.6834C13.2321 10.6831 13.2342 10.6806 13.2342 10.6806C15.7832 11.2183 15.8401 8.57179 15.8401 8.57179L12.6631 6.87305ZM5.82377 11.2924C5.52142 11.2924 5.27631 11.0472 5.27631 10.745C5.27631 10.4427 5.52139 10.502 5.82377 10.502C6.12615 10.502 6.37122 10.4427 6.37122 10.745C6.37122 11.0472 6.12615 11.2924 5.82377 11.2924ZM7.28361 15.6474C7.06321 15.6474 6.88457 15.4687 6.88457 15.2483C6.88457 15.0279 7.06321 14.8491 7.28361 14.8491C7.50401 14.8491 7.68264 15.0279 7.68264 15.2483C7.68264 15.4687 7.50405 15.6474 7.28361 15.6474ZM9.81395 15.6474C9.59355 15.6474 9.41492 15.4687 9.41492 15.2483C9.41492 15.0279 9.59355 14.8491 9.81395 14.8491C10.0344 14.8491 10.213 15.0279 10.213 15.2483C10.213 15.4687 10.0344 15.6474 9.81395 15.6474ZM11.2738 11.2924C10.9714 11.2924 10.7263 11.0472 10.7263 10.745C10.7263 10.4427 10.9714 10.502 11.2738 10.502C11.5761 10.502 11.8212 10.4427 11.8212 10.745C11.8212 11.0472 11.5761 11.2924 11.2738 11.2924Z" fill="white"/>
</g>
<defs>
<clipPath id="clip0_658_1655">
<rect width="17" height="17" fill="white"/>
</clipPath>
</defs>
</svg>
