<svg width="17" height="17" viewBox="0 0 17 17" fill="none" xmlns="http://www.w3.org/2000/svg">
<path fill-rule="evenodd" clip-rule="evenodd" d="M13.876 5.67748L13.5286 8.70786L10.0747 8.73192L9.75144 5.67748C8.93324 5.67748 8.63011 5.25641 8.63011 4.42897H9.75144C9.76083 3.80204 9.83729 3.00535 10.4583 3C10.4583 3 10.4583 4.42897 11.8157 4.42897C13.1731 4.42897 13.1718 3 13.1718 3C13.7928 3 13.8706 3.80204 13.8787 4.42897H15C15 5.25641 14.6982 5.67748 13.876 5.67748ZM9.09822 6.27901C9.15858 6.75355 9.44831 9.30271 9.44831 9.30271L11.758 9.48718L11.9981 13.8984L10.6904 13.849L10.4221 11.2543H9.39197L9.2109 13.9505L7.90043 13.9412L7.71667 11.2944L3.85504 11.1875L3.61494 13.9693L2.52177 13.9505L2 10.0927L2.93087 8.4726V5.88601C2.93087 4.89816 3.35741 4.40758 4.45997 4.40758C5.09977 4.40758 6.01723 4.4263 7.80252 4.4263C7.80252 5.41682 8.46647 6.27901 9.09822 6.27901ZM6.1071 13.9639L4.99381 14L4.38888 11.7596L5.85225 11.8225L6.1071 13.9639Z" fill="white"/>
</svg>
