<svg width="34" height="34" viewBox="0 0 34 34" fill="none" xmlns="http://www.w3.org/2000/svg">
<rect width="34" height="34" rx="8" transform="matrix(-1 0 0 1 34 0)" fill="#A65F3A"/>
<path d="M19.3095 13.4444H17.9524V17.8889L21.8248 20.1466L22.4762 19.0711L19.3095 17.2222V13.4444ZM18.8571 9C16.6975 9 14.6264 9.84285 13.0993 11.3431C11.5722 12.8434 10.7143 14.8782 10.7143 17H8L11.5829 20.5822L15.2381 17H12.5238C12.5238 15.3497 13.1911 13.7671 14.3788 12.6002C15.5665 11.4333 17.1774 10.7778 18.8571 10.7778C20.5368 10.7778 22.1478 11.4333 23.3355 12.6002C24.5232 13.7671 25.1905 15.3497 25.1905 17C25.1905 18.6502 24.5232 20.2328 23.3355 21.3997C22.1478 22.5666 20.5368 23.2222 18.8571 23.2222C17.111 23.2222 15.5276 22.52 14.3876 21.3911L13.1029 22.6533C13.8553 23.4003 14.7516 23.9926 15.7396 24.3955C16.7276 24.7984 17.7874 25.0039 18.8571 24.9999C21.0168 24.9999 23.0879 24.1571 24.615 22.6568C26.1421 21.1565 27 19.1217 27 17C27 14.8782 26.1421 12.8434 24.615 11.3431C23.0879 9.84285 21.0168 9 18.8571 9Z" fill="white"/>
</svg>
