<svg width="24" height="24" viewBox="0 0 24 24" fill="none" xmlns="http://www.w3.org/2000/svg">
<path fill-rule="evenodd" clip-rule="evenodd" d="M9.63649 5.43015C10.0031 5.10394 10.3044 4.66355 10.4083 4.24297C10.4672 4.00414 10.4949 3.62609 10.2334 3.32085C9.96613 3.00803 9.57068 2.97366 9.25894 3.01328C9.06734 3.03738 8.87467 3.05176 8.68164 3.05638L8.65624 3.05755C8.47728 3.06337 8.26368 3.07094 8.02814 3.14784C7.78337 3.22823 7.55129 3.36919 7.27361 3.57599C7.09248 3.71059 6.92134 3.85836 6.76155 4.01812C5.82113 3.3424 4.61053 3.07852 2.71065 3.1723C2.48098 3.17462 2.26164 3.2689 2.10087 3.43441C1.94009 3.59991 1.85106 3.82308 1.85336 4.05482C1.85566 4.28656 1.94909 4.50789 2.11311 4.67012C2.27713 4.83234 2.4983 4.92218 2.72797 4.91986H3.55754C3.60758 4.95404 3.65491 4.98724 3.69956 5.01947L2.38851 6.67383C2.13303 6.69523 1.88544 6.7736 1.66361 6.90328C1.44178 7.03297 1.25126 7.21072 1.10578 7.42372C0.960301 7.63672 0.863502 7.87966 0.822367 8.13499C0.781231 8.39032 0.796787 8.65169 0.867911 8.90022L1.03475 9.48274C1.139 9.84668 1.35763 10.1666 1.65772 10.3943C1.9578 10.6219 2.32308 10.7451 2.69852 10.7451H4.50085C4.62629 10.7451 4.74828 10.7864 4.84838 10.8627L5.97065 11.7179C6.06917 11.792 6.17155 11.8548 6.27777 11.906C6.94513 13.7293 7.66444 15.2823 8.47843 16.3169L8.66317 18.5596C8.47208 18.7079 8.33183 18.913 8.26208 19.1459C8.19234 19.3788 8.19661 19.6279 8.27429 19.8582C8.35196 20.0885 8.49916 20.2885 8.69522 20.4301C8.89127 20.5718 9.12635 20.6479 9.36747 20.6479H11.0994C11.2525 20.6479 11.3993 20.5865 11.5076 20.4773C11.6158 20.368 11.6767 20.2199 11.6767 20.0654V15.4052H13.4778L13.5009 15.4908C13.3696 15.5608 13.2701 15.6791 13.2231 15.8212C13.176 15.9633 13.1849 16.1182 13.2481 16.2538C13.3113 16.3893 13.4238 16.4951 13.5622 16.5492C13.7007 16.6033 13.8545 16.6014 13.9916 16.544L14.0557 16.5172C14.2555 16.752 14.4956 16.96 14.7675 17.1347L14.7652 17.1394C14.7284 17.2068 14.7052 17.281 14.697 17.3576C14.6888 17.4341 14.6957 17.5116 14.7173 17.5854C14.739 17.6593 14.7749 17.7281 14.8231 17.7878C14.8712 17.8476 14.9306 17.8971 14.9979 17.9335C15.0651 17.9699 15.1388 17.9926 15.2148 18C15.2908 18.0075 15.3674 17.9998 15.4404 17.9771C15.5134 17.9545 15.5812 17.9176 15.6399 17.8683C15.6986 17.8191 15.747 17.7587 15.7824 17.6904L15.8303 17.6007C16.2115 17.7012 16.605 17.7458 16.9988 17.733L17.0138 17.8116C17.0459 17.9602 17.1344 18.0903 17.2603 18.1739C17.3862 18.2576 17.5395 18.2882 17.6875 18.2593C17.8355 18.2304 17.9665 18.1442 18.0523 18.0192C18.1382 17.8942 18.1722 17.7402 18.147 17.5902L18.1366 17.5349C18.4253 17.44 18.6949 17.313 18.9402 17.1592L19.0557 18.559C18.8644 18.7072 18.724 18.9122 18.6541 19.1451C18.5842 19.378 18.5883 19.6271 18.6658 19.8575C18.7434 20.088 18.8905 20.2881 19.0865 20.4298C19.2826 20.5716 19.5177 20.6478 19.7588 20.6479H21.4907C21.6438 20.6479 21.7907 20.5865 21.8989 20.4773C22.0072 20.368 22.068 20.2199 22.068 20.0654V10.1625C22.068 8.63109 21.7084 7.5179 21.1028 6.75655C21.5906 6.8515 21.9116 7.01577 22.1258 7.22373C22.4473 7.53537 22.6453 8.06022 22.6453 8.99692L22.8687 12.1542C22.7325 12.3668 22.6453 12.7 22.6453 13.0746C22.6453 13.7182 22.9034 14.2396 23.2226 14.2396C23.5419 14.2396 23.7999 13.7182 23.7999 13.0746C23.7999 12.7 23.7122 12.3668 23.5759 12.1542L23.7999 8.9975C23.7999 7.92916 23.5788 7.01693 22.9259 6.38373C22.2811 5.75869 21.3349 5.52335 20.1705 5.50355L18.4293 5.50238H10.8107C10.3772 5.50238 9.98922 5.47559 9.63649 5.43015ZM20.0637 7.328C19.6145 6.8614 19.0239 6.67616 18.4357 6.668H10.8107C9.4887 6.668 8.51884 6.44431 7.70832 6.16529C7.58885 6.12418 7.48603 6.04469 7.4156 5.939C7.34517 5.83331 7.31101 5.70725 7.31834 5.5801C7.32568 5.45295 7.37411 5.33174 7.45622 5.23501C7.53833 5.13828 7.64959 5.07137 7.77297 5.04452C8.16727 4.95889 8.54078 4.81093 8.76881 4.64142C8.9318 4.51875 9.07129 4.36715 9.18043 4.19404C8.99165 4.21152 8.84271 4.21676 8.72321 4.22084H8.72148C8.51365 4.22841 8.45303 4.23365 8.38491 4.25579C8.31563 4.27909 8.20017 4.33385 7.95771 4.51385C7.66271 4.73346 7.44103 4.96705 7.31114 5.15986C7.26406 5.22957 7.20255 5.28813 7.13085 5.33149C7.05915 5.37486 6.97897 5.40199 6.89585 5.41102C6.81274 5.42005 6.72867 5.41076 6.64947 5.38379C6.57026 5.35682 6.4978 5.31281 6.43711 5.25481C6.03877 4.87442 5.56423 4.5919 4.83222 4.44161L4.89803 4.50103C5.00629 4.60073 5.07292 4.73826 5.08439 4.8857C5.09586 5.03315 5.05132 5.17948 4.9598 5.295L3.12111 7.61343C3.06711 7.68166 2.99861 7.73676 2.92067 7.77467C2.84273 7.81259 2.75734 7.83233 2.67081 7.83246H2.53226C2.44267 7.83233 2.35428 7.85324 2.27408 7.89354C2.19389 7.93384 2.12409 7.99243 2.07021 8.06465C2.01633 8.13688 1.97985 8.22076 1.96365 8.30968C1.94746 8.39859 1.95199 8.49008 1.9769 8.57692L2.14432 9.15944C2.17908 9.28065 2.25192 9.3872 2.35186 9.46305C2.45181 9.5389 2.57346 9.57994 2.69852 9.58002H4.50085C4.87755 9.58001 5.24399 9.70395 5.5446 9.93302L6.66629 10.7882C6.73441 10.8386 6.80311 10.8724 6.87239 10.8895C6.96325 10.9132 7.04702 10.9589 7.11643 11.0227C7.18584 11.0864 7.2388 11.1663 7.27072 11.2553C7.99177 13.2627 8.7209 14.8052 9.48004 15.7122C9.55739 15.8048 9.60421 15.9194 9.61398 16.0402L9.84721 18.8596C9.85935 19.0052 9.81675 19.1502 9.72788 19.2657C9.63901 19.3811 9.51036 19.4587 9.36747 19.4828H10.5221V14.8227C10.5221 14.6682 10.5829 14.52 10.6912 14.4108C10.7994 14.3015 10.9463 14.2402 11.0994 14.2402H14.6959L14.644 14.1877C13.9916 13.5254 13.2336 12.6889 12.93 12.2363L13.8866 11.5839C14.1215 11.934 14.8062 12.7 15.4626 13.3664C15.73 13.6412 16.0073 13.9061 16.2939 14.1604C16.3995 14.2507 16.4613 14.2961 16.485 14.3118C16.4543 14.2978 16.4224 14.2865 16.3897 14.278C16.4639 14.3063 16.5315 14.3498 16.5883 14.4056C17.385 15.1879 18.2405 15.771 19.5654 15.9959C19.692 16.0173 19.8078 16.0807 19.8947 16.1759C19.9816 16.2712 20.0345 16.3929 20.0452 16.5219L20.2386 18.8601C20.2506 19.0057 20.2079 19.1505 20.119 19.2659C20.0302 19.3812 19.9016 19.4587 19.7588 19.4828H20.9134V10.1625C20.9134 8.65964 20.5232 7.80566 20.0637 7.328ZM16.8723 16.5703C15.7501 16.5703 15.0031 16.0128 14.7069 15.4052H15.9544C16.4047 15.8281 16.8954 16.2079 17.4727 16.5132C17.2865 16.5504 17.0863 16.5695 16.8723 16.5703Z" fill="#2A2D2C"/>
</svg>
