<svg width="30" height="21" viewBox="0 0 30 21" fill="none" xmlns="http://www.w3.org/2000/svg">
<path fill-rule="evenodd" clip-rule="evenodd" d="M13.4223 14.3208H17.1899C17.1904 14.6132 17.2299 14.8959 17.3082 15.169C17.1424 15.2364 17.0104 15.3658 16.9412 15.5288C16.872 15.6918 16.8712 15.8752 16.939 16.0388L16.9676 16.1086C17.0433 16.2907 17.1893 16.4358 17.3736 16.5119C17.5579 16.5881 17.7653 16.589 17.9502 16.5145L18.0339 16.4804C18.2946 16.7787 18.6081 17.0444 18.963 17.267C18.7663 17.6285 18.9005 18.0834 19.2674 18.2778C19.4435 18.3709 19.6499 18.3913 19.8412 18.3345C20.0326 18.2778 20.1932 18.1484 20.2877 17.975L20.3503 17.8608C20.8478 17.9888 21.3614 18.0455 21.8754 18.0292L21.895 18.1294C21.9118 18.227 21.9481 18.3202 22.002 18.4037C22.0559 18.4872 22.1262 18.5593 22.2088 18.6156C22.2913 18.672 22.3845 18.7115 22.4828 18.7318C22.5811 18.7522 22.6826 18.753 22.7812 18.7342C22.8798 18.7154 22.9736 18.6774 23.0571 18.6224C23.1406 18.5673 23.212 18.4964 23.2673 18.4138C23.3225 18.3312 23.3605 18.2385 23.3788 18.1412C23.3972 18.044 23.3956 17.9441 23.3742 17.8474L23.3606 17.7769C24.0169 17.5715 24.618 17.2236 25.1194 16.7587L25.3537 19.5261C25.1675 19.5571 24.9998 19.6559 24.884 19.8029C24.7682 19.9499 24.7127 20.1343 24.7284 20.3197C24.7442 20.5051 24.83 20.6779 24.969 20.8039C25.108 20.9299 25.2899 20.9999 25.4788 21H27.7394V7.64153C27.743 6.63404 27.4063 5.65397 26.7824 4.85555C27.2534 4.98022 27.5819 5.16205 27.8148 5.38246C28.2345 5.77951 28.4929 6.44817 28.4929 7.64153L28.7846 11.6639C28.6067 11.9348 28.4929 12.3593 28.4929 12.8365C28.4929 13.6566 28.8298 14.3208 29.2465 14.3208C29.6632 14.3208 30 13.6566 30 12.8365C30 12.3593 29.8855 11.9348 29.7084 11.6639L30 7.64153C30 6.28045 29.7114 5.11826 28.8592 4.31156C28.0175 3.51525 26.7824 3.21542 25.2625 3.19019C25.2053 3.1887 23.6372 3.1887 23.595 3.1887V3.1939C23.5252 3.19057 23.4553 3.18884 23.3855 3.1887H12.292C10.8339 3.1887 9.73372 2.97497 8.80989 2.69296L8.69535 2.54008C9.20022 2.41391 9.70885 2.21205 10.0743 1.94637C11.0306 1.25321 11.5867 -0.141265 10.3614 0.0116154C10.0057 0.0561436 9.74804 0.0650491 9.53856 0.0724705C9.02691 0.0895396 8.80009 0.0977035 8.12191 0.589741C7.84537 0.790118 7.60273 1.00534 7.4053 1.21833C6.35111 0.446508 4.94728 0.101414 2.49603 0.220156C2.39611 0.220156 2.30028 0.25925 2.22962 0.328839C2.15896 0.398428 2.11927 0.492811 2.11927 0.591225C2.11927 0.689638 2.15896 0.784021 2.22962 0.85361C2.30028 0.923199 2.39611 0.962293 2.49603 0.962293H3.80492C4.01968 1.09885 4.20429 1.22649 4.36781 1.3482L1.66715 4.67298H1.5074C1.27241 4.67293 1.04066 4.727 0.830673 4.83087C0.620682 4.93474 0.438263 5.08553 0.297985 5.27121C0.157708 5.45688 0.0634593 5.67229 0.0227676 5.90023C-0.0179241 6.12817 -0.00393161 6.36232 0.0636275 6.58398L0.289688 7.32612C0.382874 7.63187 0.573662 7.89988 0.833741 8.09038C1.09382 8.28089 1.40933 8.38374 1.73346 8.38367H4.26608C4.5848 8.38367 4.89531 8.48318 5.15299 8.6679L6.80323 9.84939C6.85347 9.88501 6.90445 9.91717 6.9562 9.94586C8.13698 12.9441 9.38258 15.2789 10.7766 16.4537L11.0366 19.5261C10.8503 19.5571 10.6827 19.6559 10.5669 19.8029C10.4511 19.9499 10.3956 20.1343 10.4113 20.3197C10.427 20.5051 10.5129 20.6779 10.6519 20.8039C10.7908 20.9299 10.9728 20.9999 11.1617 21H13.4223V14.3208ZM20.8144 14.3208H18.697C18.697 15.3078 19.7776 16.5472 21.7111 16.5472C22.4277 16.5472 23.0276 16.3765 23.4985 16.1123C22.421 15.6893 21.5853 15.0599 20.8152 14.3208" fill="#FBF9F6"/>
</svg>
