<svg width="23" height="18" viewBox="0 0 23 18" fill="none" xmlns="http://www.w3.org/2000/svg">
<path fill-rule="evenodd" clip-rule="evenodd" d="M8.83657 2.43015C9.20315 2.10394 9.5045 1.66355 9.60841 1.24297C9.6673 1.00414 9.69501 0.626086 9.43349 0.320846C9.1662 0.00803278 8.77075 -0.0263358 8.45901 0.0132755C8.26742 0.0373766 8.07474 0.0517632 7.88171 0.0563816L7.85631 0.0575471C7.67735 0.0633723 7.46375 0.0709449 7.22821 0.147837C6.98344 0.228225 6.75136 0.369195 6.47368 0.575989C6.29255 0.710587 6.12141 0.858357 5.96162 1.01812C5.0212 0.342399 3.81061 0.0785175 1.91072 0.172303C1.68106 0.174621 1.46171 0.268902 1.30094 0.434406C1.14017 0.59991 1.05114 0.82308 1.05343 1.05482C1.05573 1.28656 1.14916 1.50789 1.31319 1.67012C1.47721 1.83234 1.69838 1.92218 1.92804 1.91986H2.75762C2.80765 1.95404 2.85499 1.98724 2.89963 2.01947L1.58859 3.67383C1.3331 3.69523 1.08551 3.7736 0.863683 3.90328C0.641858 4.03297 0.45133 4.21072 0.305852 4.42372C0.160374 4.63672 0.0635748 4.87966 0.0224398 5.13499C-0.0186953 5.39032 -0.00313967 5.65169 0.0679838 5.90022L0.234823 6.48274C0.339072 6.84668 0.557706 7.16659 0.857789 7.39426C1.15787 7.62194 1.52315 7.74505 1.8986 7.74506H3.70092C3.82636 7.74514 3.94836 7.78645 4.04845 7.86273L5.17072 8.71786C5.26925 8.79204 5.37162 8.85476 5.47784 8.90602C6.1452 10.7293 6.86451 12.2823 7.6785 13.3169L7.86324 15.5596C7.67215 15.7079 7.5319 15.913 7.46215 16.1459C7.39241 16.3788 7.39668 16.6279 7.47436 16.8582C7.55204 17.0885 7.69923 17.2885 7.89529 17.4301C8.09135 17.5718 8.32642 17.6479 8.56754 17.6479H10.2994C10.4525 17.6479 10.5994 17.5865 10.7077 17.4773C10.8159 17.368 10.8767 17.2199 10.8767 17.0654V12.4052H12.6779L12.701 12.4908C12.5697 12.5608 12.4702 12.6791 12.4231 12.8212C12.376 12.9633 12.385 13.1182 12.4482 13.2538C12.5114 13.3893 12.6239 13.4951 12.7623 13.5492C12.9008 13.6033 13.0546 13.6014 13.1917 13.544L13.2558 13.5172C13.4555 13.752 13.6957 13.96 13.9676 14.1347L13.9653 14.1394C13.9285 14.2068 13.9053 14.281 13.8971 14.3576C13.8889 14.4341 13.8958 14.5116 13.9174 14.5854C13.939 14.6593 13.975 14.7281 14.0231 14.7878C14.0713 14.8476 14.1307 14.8971 14.1979 14.9335C14.2652 14.9699 14.3389 14.9926 14.4149 15C14.4908 15.0075 14.5675 14.9998 14.6405 14.9771C14.7134 14.9545 14.7812 14.9176 14.8399 14.8683C14.8986 14.8191 14.9471 14.7587 14.9825 14.6904L15.0304 14.6007C15.4116 14.7012 15.8051 14.7458 16.1988 14.733L16.2139 14.8116C16.246 14.9602 16.3345 15.0903 16.4604 15.1739C16.5863 15.2576 16.7396 15.2882 16.8876 15.2593C17.0356 15.2304 17.1665 15.1442 17.2524 15.0192C17.3383 14.8942 17.3722 14.7402 17.3471 14.5902L17.3367 14.5349C17.6254 14.44 17.895 14.313 18.1403 14.1592L18.2558 15.559C18.0645 15.7072 17.9241 15.9122 17.8542 16.1451C17.7842 16.378 17.7883 16.6271 17.8659 16.8575C17.9435 17.088 18.0906 17.2881 18.2866 17.4298C18.4826 17.5716 18.7177 17.6478 18.9589 17.6479H20.6908C20.8439 17.6479 20.9908 17.5865 21.099 17.4773C21.2073 17.368 21.2681 17.2199 21.2681 17.0654V7.16254C21.2681 5.63109 20.9084 4.5179 20.3029 3.75655C20.7907 3.8515 21.1117 4.01577 21.3258 4.22373C21.6474 4.53537 21.8454 5.06022 21.8454 5.99692L22.0688 9.15417C21.9326 9.36679 21.8454 9.69999 21.8454 10.0746C21.8454 10.7182 22.1035 11.2396 22.4227 11.2396C22.7419 11.2396 23 10.7182 23 10.0746C23 9.69999 22.9123 9.36679 22.776 9.15417L23 5.9975C23 4.92916 22.7789 4.01693 22.126 3.38373C21.4811 2.75869 20.5349 2.52335 19.3705 2.50355L17.6294 2.50238H10.0108C9.57724 2.50238 9.18929 2.47559 8.83657 2.43015ZM19.2637 4.328C18.8146 3.8614 18.224 3.67616 17.6357 3.668H10.0108C8.68878 3.668 7.71892 3.44431 6.90839 3.16529C6.78893 3.12418 6.68611 3.04469 6.61568 2.939C6.54524 2.83331 6.51108 2.70725 6.51842 2.5801C6.52575 2.45295 6.57418 2.33174 6.65629 2.23501C6.7384 2.13828 6.84966 2.07137 6.97305 2.04452C7.36734 1.95889 7.74085 1.81093 7.96889 1.64142C8.13188 1.51875 8.27136 1.36715 8.3805 1.19404C8.19172 1.21152 8.04278 1.21676 7.92328 1.22084H7.92155C7.71372 1.22841 7.6531 1.23365 7.58498 1.25579C7.51571 1.27909 7.40025 1.33385 7.15778 1.51385C6.86278 1.73346 6.6411 1.96705 6.51121 2.15986C6.46414 2.22957 6.40262 2.28813 6.33092 2.33149C6.25922 2.37486 6.17904 2.40199 6.09593 2.41102C6.01281 2.42005 5.92875 2.41076 5.84954 2.38379C5.77033 2.35682 5.69788 2.31281 5.63718 2.25481C5.23884 1.87442 4.7643 1.5919 4.03229 1.44161L4.0981 1.50103C4.20637 1.60073 4.27299 1.73826 4.28446 1.8857C4.29593 2.03315 4.25139 2.17948 4.15987 2.295L2.32118 4.61343C2.26719 4.68166 2.19869 4.73676 2.12074 4.77467C2.0428 4.81259 1.95741 4.83233 1.87089 4.83246H1.73233C1.64274 4.83233 1.55435 4.85324 1.47416 4.89354C1.39396 4.93384 1.32416 4.99243 1.27028 5.06465C1.2164 5.13688 1.17992 5.22076 1.16373 5.30968C1.14753 5.39859 1.15207 5.49008 1.17697 5.57692L1.34439 6.15944C1.37916 6.28065 1.45199 6.3872 1.55194 6.46305C1.65188 6.5389 1.77354 6.57994 1.8986 6.58002H3.70092C4.07763 6.58001 4.44406 6.70395 4.74468 6.93302L5.86637 7.78816C5.93449 7.83865 6.00319 7.87243 6.07246 7.88952C6.16333 7.91323 6.24709 7.95894 6.3165 8.02268C6.38591 8.08643 6.43887 8.16629 6.4708 8.25534C7.19184 10.2627 7.92097 11.8052 8.68012 12.7122C8.75746 12.8048 8.80428 12.9194 8.81405 13.0402L9.04728 15.8596C9.05942 16.0052 9.01683 16.1502 8.92796 16.2657C8.83908 16.3811 8.71043 16.4587 8.56754 16.4828H9.72214V11.8227C9.72214 11.6682 9.78296 11.52 9.89123 11.4108C9.99949 11.3015 10.1463 11.2402 10.2994 11.2402H13.896L13.844 11.1877C13.1917 10.5254 12.4337 9.68892 12.1301 9.23631L13.0866 8.58389C13.3216 8.93398 14.0063 9.69999 14.6627 10.3664C14.93 10.6412 15.2073 10.9061 15.494 11.1604C15.5996 11.2507 15.6614 11.2961 15.6851 11.3118C15.6543 11.2978 15.6225 11.2865 15.5898 11.278C15.664 11.3063 15.7316 11.3498 15.7884 11.4056C16.5851 12.1879 17.4406 12.771 18.7655 12.9959C18.892 13.0173 19.0079 13.0807 19.0948 13.1759C19.1816 13.2712 19.2346 13.3929 19.2453 13.5219L19.4386 15.8601C19.4506 16.0057 19.408 16.1505 19.3191 16.2659C19.2303 16.3812 19.1017 16.4587 18.9589 16.4828H20.1135V7.16254C20.1135 5.65964 19.7233 4.80566 19.2637 4.328ZM16.0724 13.5703C14.9502 13.5703 14.2031 13.0128 13.907 12.4052H15.1545C15.6048 12.8281 16.0955 13.2079 16.6728 13.5132C16.4865 13.5504 16.2864 13.5695 16.0724 13.5703Z" fill="#2A2D2C"/>
</svg>
