<svg width="17" height="17" viewBox="0 0 17 17" fill="none" xmlns="http://www.w3.org/2000/svg">
<path d="M16.9039 5.55698L15.0723 3.64619L15.8695 3.13775L15.916 2.7415L15.5462 2.71945L14.5872 3.40921L13.3906 3.41025L12.658 2.96296L12.3957 3.01653L12.3995 3.30733L12.8717 3.8303L12.8095 4.10502L7.25242 4.70265L1.49628 4.5419L0.875988 4.80192L0.419089 5.38251L0.18401 6.74052L0.142484 7.71671L0 8.62826L0.0391679 9.53616L0.199413 9.56893L0.432348 9.31248L0.621719 8.46062L0.468228 7.27886L0.521619 7.27082L0.882421 9.0699L0.636657 10.6313L0.86105 13.7474L0.882421 14.0925L1.1011 14.279L2.06796 14.2805L2.37952 14.1863L1.5145 12.7776L1.94363 10.9888L2.16839 10.9892L2.95256 13.3676L3.35679 13.9782L3.5562 14.1009L4.62349 14.1017L4.76043 13.9304L3.83652 13.3628L3.21009 11.4336L3.36712 11.1204L3.7351 11.1546L3.96614 11.7203L4.30082 11.1688L4.6251 11.7226L4.89977 11.1213L5.70825 10.4998L8.57719 10.2251L9.05871 10.8138L9.46455 13.6917L9.67804 14.1052L10.6556 14.1048L10.761 13.9499L10.1668 13.1229L10.0954 11.5481L10.4163 11.7262L10.7542 12.7723L11.184 14.1306L11.3768 14.28L12.2514 14.2805L12.324 14.083L12.0683 13.8463L11.2436 12.2346L11.4337 10.5454L12.3579 9.8618L13.7041 7.36131L15.2535 6.64599L16.6784 6.48378L16.8006 6.35134L17 5.78934L16.9039 5.55698Z" fill="white"/>
</svg>
