<svg width="26" height="26" viewBox="0 0 26 26" fill="none" xmlns="http://www.w3.org/2000/svg">
<path d="M12.9994 24L9.74787 20.7651H5.23383V16.251L2 12.9994L5.23383 9.74787V5.23383H9.74787L12.9994 2L16.251 5.23383H20.7651V9.74787L24 12.9994L20.7651 16.251V20.7651H16.251L12.9994 24ZM12.9994 22.4291L15.1538 20.2747V15.2515C14.7781 15.0333 14.4675 14.6665 14.222 14.151C13.9757 13.6355 13.8526 13.0438 13.8526 12.376C13.8526 11.5336 14.0415 10.8151 14.4194 10.2205C14.7981 9.62584 15.2637 9.32853 15.8161 9.32853C16.3479 9.32853 16.8042 9.62658 17.1851 10.2227C17.5667 10.818 17.7576 11.5369 17.7576 12.3793C17.7576 13.056 17.6322 13.6499 17.3815 14.161C17.1308 14.672 16.822 15.0355 16.4551 15.2515V19.6557H19.6557V15.7729L22.4291 12.9994L19.6557 10.226V6.3432H15.7729L12.9994 3.56976L10.226 6.3432H6.3432V10.226L3.56976 12.9994L6.3432 15.7729V19.6557H9.54374V14.557C9.16212 14.4601 8.85002 14.256 8.60743 13.9446C8.36337 13.634 8.24134 13.2757 8.24134 12.8696V9.33074H9.10332V12.6223H9.74898V9.32964H10.6099V12.6211H11.2688V9.32964H12.1452V12.8696C12.1452 13.2749 12.0202 13.6336 11.7703 13.9457C11.5203 14.2564 11.2119 14.4598 10.845 14.5559V20.2747L12.9994 22.4291Z" fill="#DFAF3A"/>
</svg>
