<svg width="5" height="20" viewBox="0 0 5 20" fill="none" xmlns="http://www.w3.org/2000/svg">
<path d="M5 17.6923C5 18.3043 4.73661 18.8913 4.26777 19.3241C3.79893 19.7569 3.16304 20 2.5 20C1.83696 20 1.20107 19.7569 0.732233 19.3241C0.263392 18.8913 0 18.3043 0 17.6923C0 17.0803 0.263392 16.4933 0.732233 16.0605C1.20107 15.6277 1.83696 15.3846 2.5 15.3846C3.16304 15.3846 3.79893 15.6277 4.26777 16.0605C4.73661 16.4933 5 17.0803 5 17.6923ZM5 10C5 10.612 4.73661 11.199 4.26777 11.6318C3.79893 12.0646 3.16304 12.3077 2.5 12.3077C1.83696 12.3077 1.20107 12.0646 0.732233 11.6318C0.263392 11.199 0 10.612 0 10C0 9.38796 0.263392 8.80099 0.732233 8.36821C1.20107 7.93544 1.83696 7.69231 2.5 7.69231C3.16304 7.69231 3.79893 7.93544 4.26777 8.36821C4.73661 8.80099 5 9.38796 5 10ZM5 2.30769C5 2.91973 4.73661 3.5067 4.26777 3.93948C3.79893 4.37225 3.16304 4.61538 2.5 4.61538C1.83696 4.61538 1.20107 4.37225 0.732233 3.93948C0.263392 3.5067 0 2.91973 0 2.30769C0 1.69565 0.263392 1.10868 0.732233 0.675907C1.20107 0.243131 1.83696 0 2.5 0C3.16304 0 3.79893 0.243131 4.26777 0.675907C4.73661 1.10868 5 1.69565 5 2.30769Z" fill="#717680"/>
</svg>
