<svg width="30" height="30" viewBox="0 0 30 30" fill="none" xmlns="http://www.w3.org/2000/svg">
<rect width="30" height="30" rx="15" fill="#D5D7DA" fill-opacity="0.3"/>
<path d="M10.4444 20.5556H11.4736L18.5333 13.4958L17.5042 12.4667L10.4444 19.5264V20.5556ZM9.72222 22C9.51759 22 9.34619 21.9307 9.208 21.792C9.06981 21.6533 9.00048 21.4819 9 21.2778V19.5264C9 19.3338 9.03611 19.1501 9.10833 18.9753C9.18056 18.8006 9.28287 18.6472 9.41528 18.5153L18.5333 9.41528C18.6778 9.28287 18.8374 9.18056 19.0122 9.10833C19.1869 9.03611 19.3704 9 19.5625 9C19.7546 9 19.9412 9.03611 20.1222 9.10833C20.3033 9.18056 20.4597 9.28889 20.5917 9.43333L21.5847 10.4444C21.7292 10.5769 21.8344 10.7333 21.9003 10.9139C21.9663 11.0944 21.9995 11.275 22 11.4556C22 11.6481 21.9668 11.8318 21.9003 12.0066C21.8339 12.1814 21.7287 12.3408 21.5847 12.4847L12.4847 21.5847C12.3523 21.7171 12.1987 21.8194 12.0239 21.8917C11.8492 21.9639 11.6657 22 11.4736 22H9.72222ZM18.0097 12.9903L17.5042 12.4667L18.5333 13.4958L18.0097 12.9903Z" fill="#2A2D2C" fill-opacity="0.5"/>
</svg>
