<svg width="32" height="32" viewBox="0 0 32 32" fill="none" xmlns="http://www.w3.org/2000/svg">
<path d="M8.94444 8H24.0556C24.306 8 24.5463 8.10108 24.7234 8.28101C24.9005 8.46094 25 8.70497 25 8.95942V10.4811C24.9999 10.7355 24.9004 10.9795 24.7233 11.1594L18.6656 17.3131C18.4885 17.493 18.3889 17.737 18.3889 17.9914V24.0406C18.3889 24.1864 18.3562 24.3304 18.2932 24.4614C18.2302 24.5925 18.1387 24.7072 18.0255 24.7969C17.9123 24.8867 17.7805 24.949 17.64 24.9792C17.4996 25.0094 17.3542 25.0067 17.2149 24.9712L15.3261 24.4915C15.1218 24.4396 14.9405 24.3197 14.811 24.1511C14.6815 23.9825 14.6111 23.7748 14.6111 23.5609V17.9914C14.6111 17.737 14.5115 17.493 14.3344 17.3131L8.27672 11.1594C8.09959 10.9795 8.00005 10.7355 8 10.4811V8.95942C8 8.70497 8.0995 8.46094 8.27662 8.28101C8.45374 8.10108 8.69396 8 8.94444 8Z" stroke="#717680" stroke-width="2" stroke-linecap="round" stroke-linejoin="round"/>
</svg>
