<svg width="30" height="30" viewBox="0 0 30 30" fill="none" xmlns="http://www.w3.org/2000/svg">
<g clip-path="url(#clip0_147_3420)">
<path fill-rule="evenodd" clip-rule="evenodd" d="M29.3213 16.6831C28.9052 18.1375 27.7843 19.2569 25.5441 21.4971L22.8906 24.1507C18.9902 28.0526 17.0414 30 14.6199 30C12.197 30 10.2482 28.0512 6.34923 24.1521C2.44878 20.2516 0.5 18.3028 0.5 15.8798C0.5 13.4583 2.44878 11.508 6.34778 7.60895L9.00125 4.95543C11.2429 2.71517 12.3623 1.59431 13.8166 1.17816C15.271 0.760554 16.8152 1.11726 19.9022 1.83066L21.6828 2.24101C24.2812 2.83987 25.5803 3.14002 26.4706 4.02888C27.3609 4.91773 27.6582 6.21984 28.2585 8.81681L28.6703 10.5974C29.3822 13.6859 29.7374 15.2288 29.3213 16.6831ZM17.7229 8.64281C17.4432 8.91252 17.2201 9.23525 17.0666 9.59215C16.913 9.94906 16.8321 10.333 16.8286 10.7215C16.8251 11.11 16.899 11.4953 17.046 11.855C17.1931 12.2146 17.4103 12.5413 17.6851 12.8161C17.9598 13.0908 18.2865 13.308 18.6461 13.4551C19.0058 13.6022 19.3911 13.6761 19.7796 13.6726C20.1681 13.669 20.552 13.5881 20.9089 13.4346C21.2658 13.281 21.5885 13.0579 21.8582 12.7782C22.3903 12.2265 22.6845 11.488 22.6776 10.7215C22.6706 9.95504 22.3631 9.22195 21.8211 8.67996C21.2791 8.13797 20.546 7.83041 19.7796 7.82346C19.0131 7.81651 18.2746 8.11073 17.7229 8.64281ZM4.77745 15.5739L14.8969 25.6949C15.1021 25.8929 15.3768 26.0024 15.662 25.9998C15.9471 25.9972 16.2198 25.8827 16.4213 25.681C16.6229 25.4792 16.7371 25.2064 16.7395 24.9213C16.7418 24.6361 16.632 24.3615 16.4339 24.1565L6.31588 14.0354C6.11187 13.8314 5.83517 13.7168 5.54666 13.7168C5.25815 13.7168 4.98146 13.8314 4.77745 14.0354C4.57344 14.2394 4.45883 14.5161 4.45883 14.8046C4.45883 15.0931 4.57344 15.3698 4.77745 15.5739Z" fill="#FBF9F6"/>
</g>
<defs>
<clipPath id="clip0_147_3420">
<rect width="30" height="30" fill="white" transform="matrix(-1 0 0 1 30 0)"/>
</clipPath>
</defs>
</svg>
