<svg width="17" height="17" viewBox="0 0 17 17" fill="none" xmlns="http://www.w3.org/2000/svg">
<g clip-path="url(#clip0_218_3855)">
<path d="M14.1456 5.20705C14.3489 4.87864 14.4921 4.53831 14.558 4.20471C14.8221 2.87347 13.9609 1.34407 12.4413 0.76663C12.1606 0.659749 12.0045 0.898911 12.1684 1.14378C12.5679 1.73832 12.8937 2.84129 12.3007 3.59823C12.2467 3.66775 12.1881 3.73051 12.1284 3.7907L11.397 3.27712H5.60303L4.87153 3.79074C4.81186 3.73054 4.75323 3.66779 4.69927 3.59826C4.1063 2.84133 4.43209 1.73835 4.83155 1.14382C4.99551 0.898944 4.83932 0.659782 4.55866 0.766663C3.03912 1.34407 2.17793 2.8735 2.44199 4.20475C2.50787 4.53834 2.65107 4.87867 2.85444 5.20708L0 7.21119C0 7.21119 2.12447 9.33566 3.96362 7.86695C3.96362 8.91597 4.42276 10.1227 5.44584 10.8303L5.99628 13.0243C5.31406 13.2277 4.81655 13.8591 4.81655 14.6072C4.81655 15.5197 5.55585 16.2596 6.4684 16.2596H10.5316C11.4442 16.2596 12.184 15.5198 12.184 14.6072C12.184 13.8591 11.686 13.2277 11.0037 13.0243L11.5547 10.8303C12.5772 10.1227 13.0364 8.91597 13.0364 7.86695C14.8755 9.33566 17 7.21119 17 7.21119L14.1456 5.20705Z" fill="white"/>
</g>
<defs>
<clipPath id="clip0_218_3855">
<rect width="17" height="17" fill="white"/>
</clipPath>
</defs>
</svg>
