<svg width="34" height="34" viewBox="0 0 34 34" fill="none" xmlns="http://www.w3.org/2000/svg">
<rect width="34" height="34" rx="8" transform="matrix(-1 0 0 1 34 0)" fill="#A65F3A"/>
<path d="M17 14.3333C16.5757 14.3333 16.1687 14.4738 15.8686 14.7239C15.5686 14.9739 15.4 15.313 15.4 15.6667V23.6667C15.4 24.0203 15.5686 24.3594 15.8686 24.6095C16.1687 24.8595 16.5757 25 17 25C17.4243 25 17.8313 24.8595 18.1314 24.6095C18.4314 24.3594 18.6 24.0203 18.6 23.6667V15.6667C18.6 15.313 18.4314 14.9739 18.1314 14.7239C17.8313 14.4738 17.4243 14.3333 17 14.3333ZM17 9C16.6044 9 16.2178 9.09775 15.8889 9.28088C15.56 9.46402 15.3036 9.72432 15.1522 10.0289C15.0009 10.3334 14.9613 10.6685 15.0384 10.9918C15.1156 11.3151 15.3061 11.6121 15.5858 11.8452C15.8655 12.0783 16.2219 12.237 16.6098 12.3013C16.9978 12.3656 17.3999 12.3326 17.7654 12.2065C18.1308 12.0803 18.4432 11.8667 18.6629 11.5926C18.8827 11.3185 19 10.9963 19 10.6667C19 10.2246 18.7893 9.80072 18.4142 9.48816C18.0391 9.17559 17.5304 9 17 9Z" fill="white"/>
</svg>
