<svg width="30" height="30" viewBox="0 0 30 30" fill="none" xmlns="http://www.w3.org/2000/svg">
<path d="M1 4.50006C1.07811 9.05191 2.51043 12.7951 4.70799 15.513C4.96387 15.2238 5.22186 14.9391 5.47732 14.6603C5.53121 14.5998 5.59766 14.5518 5.67202 14.5197C5.74639 14.4875 5.82688 14.472 5.90787 14.4741C6.0153 14.4769 6.11962 14.5108 6.20822 14.5716C6.29682 14.6324 6.36593 14.7176 6.40719 14.8168C6.44846 14.9161 6.46011 15.0251 6.44076 15.1308C6.4214 15.2365 6.37185 15.3344 6.29811 15.4126C4.95297 16.8802 3.57291 18.5075 2.85414 19.9213C2.49484 20.6284 2.30863 21.2731 2.32463 21.789C2.33459 22.1097 2.40514 22.3851 2.57424 22.6422L3.54408 21.3131C3.59634 21.2393 3.66579 21.1793 3.74643 21.1384C3.82706 21.0975 3.91645 21.0768 4.00686 21.0782C4.10955 21.0798 4.20982 21.1097 4.29655 21.1647C4.38329 21.2197 4.45311 21.2977 4.4983 21.3899C4.54349 21.4821 4.56227 21.5851 4.55258 21.6873C4.54289 21.7896 4.50509 21.8872 4.44338 21.9693L3.46867 23.305C3.64287 23.3235 3.83875 23.2884 4.08238 23.2025C4.56133 23.0336 5.15934 22.6243 5.76602 22.0498C6.97914 20.9009 8.23574 19.1168 9.10311 17.5004C9.15793 17.3982 9.2433 17.3157 9.3473 17.2643C9.4513 17.213 9.56873 17.1955 9.68318 17.2141C10.0481 17.2737 10.9809 17.3439 11.7797 17.2477C12.179 17.1997 12.5477 17.1074 12.7894 16.988C13.031 16.8688 13.1173 16.763 13.148 16.6403C13.1656 16.5694 13.1971 16.5026 13.2406 16.4439C13.2841 16.3851 13.3388 16.3355 13.4015 16.2978C13.4641 16.2602 13.5336 16.2353 13.6059 16.2245C13.6782 16.2137 13.752 16.2172 13.8229 16.235C13.8938 16.2527 13.9606 16.2842 14.0193 16.3277C14.0781 16.3712 14.1277 16.4259 14.1653 16.4886C14.203 16.5513 14.2279 16.6207 14.2386 16.6931C14.2494 16.7654 14.2458 16.8391 14.2281 16.91C14.0996 17.4245 13.7027 17.7787 13.2821 17.9864C12.8614 18.1939 12.3888 18.2956 11.9126 18.353C11.1627 18.4433 10.4202 18.4164 9.88984 18.3613C9.72176 18.6618 9.54716 18.9586 9.36619 19.2515C11.0672 20.0752 12.9099 20.5027 14.7767 20.4887C16.069 20.4791 17.3443 20.2373 18.5642 19.7893C18.2119 19.2832 17.9023 18.771 17.6504 18.2682C17.6177 18.2028 17.5981 18.1317 17.5929 18.0587C17.5877 17.9858 17.5968 17.9126 17.6199 17.8432C17.643 17.7739 17.6795 17.7097 17.7274 17.6545C17.7752 17.5992 17.8335 17.5539 17.8988 17.5212C17.9642 17.4884 18.0354 17.4689 18.1083 17.4637C18.1812 17.4584 18.2544 17.4676 18.3238 17.4907C18.3932 17.5137 18.4573 17.5503 18.5126 17.5981C18.5678 17.646 18.6131 17.7042 18.6459 17.7696C19.4479 19.3704 21.0302 21.2362 22.6031 22.4561C23.3896 23.066 24.1761 23.5135 24.8204 23.7078C25.1713 23.8136 25.4592 23.8471 25.6983 23.8164L25.054 23.0493C24.9846 22.9691 24.9396 22.8707 24.9242 22.7658C24.9088 22.6608 24.9238 22.5537 24.9672 22.4569C25.0107 22.3602 25.0809 22.2779 25.1695 22.2197C25.2582 22.1615 25.3616 22.1298 25.4677 22.1285C25.5515 22.1273 25.6346 22.1451 25.7106 22.1806C25.7866 22.216 25.8536 22.2682 25.9066 22.3332L26.6129 23.1741C26.8019 22.8973 26.8888 22.5912 26.9083 22.2306C26.9383 21.672 26.7682 20.98 26.429 20.2292C25.7506 18.7274 24.4194 17.0185 23.086 15.5637C23.01 15.4831 22.9598 15.3817 22.9417 15.2724C22.9237 15.1631 22.9387 15.0509 22.9847 14.9502C23.0308 14.8495 23.1059 14.7648 23.2003 14.7069C23.2948 14.6491 23.4044 14.6208 23.5151 14.6256C23.5895 14.6288 23.6625 14.6469 23.7297 14.6788C23.797 14.7107 23.8572 14.7558 23.9068 14.8114C24.0884 15.0097 24.2703 15.2127 24.4511 15.4191C26.6492 12.6452 28.0742 8.88152 28.1362 4.5L1 4.50006ZM9.12484 20.3602C8.83469 21.2161 8.60553 22.075 8.47779 22.8569C8.33271 23.7448 8.32498 24.5331 8.4608 25.0685C8.59674 25.6039 8.79537 25.849 9.19404 25.9603C9.79814 26.1291 10.2229 26.0377 10.6521 25.751C11.0812 25.4644 11.4979 24.9383 11.8647 24.2352C12.2639 23.4697 12.6004 22.5075 12.8911 21.476C11.5927 21.294 10.3262 20.917 9.12473 20.3602L9.12484 20.3602ZM19.2639 20.7166C18.6836 20.947 18.0871 21.1344 17.4794 21.2774C17.5094 21.3309 17.5391 21.3854 17.5696 21.4375C18.0229 22.2146 18.5187 22.8275 18.9643 23.1538C19.4098 23.4802 19.7191 23.5428 20.0975 23.3747C20.5625 23.1685 20.8274 22.9052 20.9902 22.5493C20.3777 21.9894 19.7915 21.3666 19.264 20.7165L19.2639 20.7166Z" fill="#FBF9F6"/>
</svg>
