<svg width="24" height="23" viewBox="0 0 24 23" fill="none" xmlns="http://www.w3.org/2000/svg">
<path d="M10.2857 13.1429H1.71429C1.22858 13.1429 0.82172 12.9851 0.49372 12.6697C0.16572 12.3543 0.00114877 11.9644 5.91132e-06 11.5C-0.00113695 11.0356 0.163435 10.6457 0.49372 10.3303C0.824006 10.0149 1.23086 9.85714 1.71429 9.85714H10.2857V1.64286C10.2857 1.17739 10.4503 0.787482 10.7794 0.473148C11.1086 0.158815 11.5154 0.0011009 12 5.66502e-06C12.4846 -0.00108957 12.892 0.156625 13.2223 0.473148C13.5526 0.789672 13.7166 1.17958 13.7143 1.64286V9.85714H22.2857C22.7714 9.85714 23.1789 10.0149 23.508 10.3303C23.8371 10.6457 24.0011 11.0356 24 11.5C23.9989 11.9644 23.8343 12.3548 23.5063 12.6714C23.1783 12.9879 22.7714 13.145 22.2857 13.1429H13.7143V21.3571C13.7143 21.8226 13.5497 22.2131 13.2206 22.5285C12.8914 22.8439 12.4846 23.0011 12 23C11.5154 22.9989 11.1086 22.8412 10.7794 22.5269C10.4503 22.2125 10.2857 21.8226 10.2857 21.3571V13.1429Z" fill="#FBF9F6"/>
</svg>
