<svg width="21" height="17" viewBox="0 0 21 17" fill="none" xmlns="http://www.w3.org/2000/svg">
<path d="M20 1.83158V6.83289M20 6.83289H14.8182M20 6.83289L15.9927 3.19861C15.0645 2.3023 13.9162 1.64754 12.6549 1.29542C11.3937 0.943298 10.0605 0.905296 8.77988 1.18496C7.49927 1.46462 6.31292 2.05283 5.33154 2.89471C4.35016 3.73658 3.60574 4.80468 3.16773 5.99934M1 15.1684V10.1671M1 10.1671H6.18182M1 10.1671L5.00727 13.8014C5.93546 14.6977 7.08378 15.3525 8.34506 15.7046C9.60635 16.0567 10.9395 16.0947 12.2201 15.815C13.5007 15.5354 14.6871 14.9472 15.6685 14.1053C16.6498 13.2634 17.3943 12.1953 17.8323 11.0007" stroke="#717680" stroke-width="2" stroke-linecap="round" stroke-linejoin="round"/>
</svg>
