<svg width="30" height="30" viewBox="0 0 30 30" fill="none" xmlns="http://www.w3.org/2000/svg">
<path fill-rule="evenodd" clip-rule="evenodd" d="M16.5777 19.3208H12.8101C12.8096 19.6132 12.7701 19.8959 12.6918 20.169C12.8576 20.2364 12.9896 20.3658 13.0588 20.5288C13.128 20.6918 13.1288 20.8752 13.061 21.0388L13.0324 21.1086C12.9567 21.2907 12.8107 21.4358 12.6264 21.5119C12.4421 21.5881 12.2347 21.589 12.0498 21.5145L11.9661 21.4804C11.7054 21.7787 11.3919 22.0444 11.037 22.267C11.2337 22.6285 11.0995 23.0834 10.7326 23.2778C10.5565 23.3709 10.3501 23.3913 10.1588 23.3345C9.96743 23.2778 9.80683 23.1484 9.71229 22.975L9.64975 22.8608C9.15223 22.9888 8.63856 23.0455 8.1246 23.0292L8.105 23.1294C8.08825 23.227 8.05186 23.3202 7.99797 23.4037C7.94408 23.4872 7.87379 23.5593 7.79122 23.6156C7.70866 23.672 7.61548 23.7115 7.51718 23.7318C7.41888 23.7522 7.31744 23.753 7.21882 23.7342C7.1202 23.7154 7.02638 23.6774 6.9429 23.6224C6.85942 23.5673 6.78796 23.4964 6.73271 23.4138C6.67746 23.3312 6.63954 23.2385 6.62118 23.1412C6.60283 23.044 6.6044 22.9441 6.62582 22.8474L6.63938 22.7769C5.98309 22.5715 5.38204 22.2236 4.88064 21.7587L4.64629 24.5261C4.83253 24.5571 5.00015 24.6559 5.11595 24.8029C5.23175 24.9499 5.28729 25.1343 5.27155 25.3197C5.25582 25.5051 5.16997 25.6779 5.031 25.8039C4.89203 25.9299 4.71009 25.9999 4.5212 26H2.2606V12.6415C2.25702 11.634 2.59368 10.654 3.21759 9.85555C2.74663 9.98022 2.41809 10.162 2.18525 10.3825C1.76553 10.7795 1.50706 11.4482 1.50706 12.6415L1.21545 16.6639C1.39328 16.9348 1.50706 17.3593 1.50706 17.8365C1.50706 18.6566 1.17024 19.3208 0.753532 19.3208C0.336828 19.3208 -1.90735e-06 18.6566 -1.90735e-06 17.8365C-1.90735e-06 17.3593 0.114536 16.9348 0.291616 16.6639L-1.90735e-06 12.6415C-1.90735e-06 11.2804 0.288603 10.1183 1.14085 9.31156C1.98255 8.51525 3.21758 8.21542 4.73746 8.19019C4.79473 8.1887 6.36283 8.1887 6.40503 8.1887V8.1939C6.47481 8.19057 6.54466 8.18884 6.61452 8.1887H17.708C19.1661 8.1887 20.2663 7.97497 21.1901 7.69296L21.3046 7.54008C20.7998 7.41391 20.2911 7.21205 19.9257 6.94637C18.9694 6.25321 18.4133 4.85874 19.6386 5.01162C19.9943 5.05614 20.252 5.06505 20.4614 5.07247C20.9731 5.08954 21.1999 5.0977 21.8781 5.58974C22.1546 5.79012 22.3973 6.00534 22.5947 6.21833C23.6489 5.44651 25.0527 5.10141 27.504 5.22016C27.6039 5.22016 27.6997 5.25925 27.7704 5.32884C27.841 5.39843 27.8807 5.49281 27.8807 5.59122C27.8807 5.68964 27.841 5.78402 27.7704 5.85361C27.6997 5.9232 27.6039 5.96229 27.504 5.96229H26.1951C25.9803 6.09885 25.7957 6.22649 25.6322 6.3482L28.3329 9.67298H28.4926C28.7276 9.67293 28.9593 9.727 29.1693 9.83087C29.3793 9.93474 29.5617 10.0855 29.702 10.2712C29.8423 10.4569 29.9365 10.6723 29.9772 10.9002C30.0179 11.1282 30.0039 11.3623 29.9364 11.584L29.7103 12.3261C29.6171 12.6319 29.4263 12.8999 29.1663 13.0904C28.9062 13.2809 28.5907 13.3837 28.2665 13.3837H25.7339C25.4152 13.3837 25.1047 13.4832 24.847 13.6679L23.1968 14.8494C23.1465 14.885 23.0955 14.9172 23.0438 14.9459C21.863 17.9441 20.6174 20.2789 19.2234 21.4537L18.9634 24.5261C19.1497 24.5571 19.3173 24.6559 19.4331 24.8029C19.5489 24.9499 19.6044 25.1343 19.5887 25.3197C19.573 25.5051 19.4871 25.6779 19.3481 25.8039C19.2092 25.9299 19.0272 25.9999 18.8383 26H16.5777V19.3208ZM9.18557 19.3208H11.303C11.303 20.3078 10.2224 21.5472 8.28887 21.5472C7.57226 21.5472 6.97244 21.3765 6.50148 21.1123C7.57904 20.6893 8.41471 20.0599 9.18482 19.3208" fill="#FBF9F6"/>
</svg>
