<svg width="23" height="19" viewBox="0 0 23 19" fill="none" xmlns="http://www.w3.org/2000/svg">
<path d="M1 1H21.3848M1 9.15393H6.60582M1 17.3079H6.60582" stroke="#717680" stroke-width="2" stroke-linecap="round"/>
<path d="M15.0146 14.7597C16.1635 14.7597 17.2653 14.3034 18.0777 13.491C18.89 12.6786 19.3464 11.5768 19.3464 10.428C19.3464 9.27912 18.89 8.17731 18.0777 7.36495C17.2653 6.55258 16.1635 6.0962 15.0146 6.0962C13.8658 6.0962 12.764 6.55258 11.9516 7.36495C11.1392 8.17731 10.6829 9.27912 10.6829 10.428C10.6829 11.5768 11.1392 12.6786 11.9516 13.491C12.764 14.3034 13.8658 14.7597 15.0146 14.7597Z" stroke="#717680" stroke-width="2"/>
<path d="M17.8174 13.7405L21.3847 17.3333" stroke="#717680" stroke-width="2" stroke-linecap="round"/>
</svg>
