<svg width="111" height="111" viewBox="0 0 111 111" fill="none" xmlns="http://www.w3.org/2000/svg">
<g opacity="0.84">
<path fill-rule="evenodd" clip-rule="evenodd" d="M61.6053 23.1749C61.6053 13.4133 53.6054 5.5 43.7368 5.5L42.7566 5.52604C33.3441 6.02954 25.8685 13.7388 25.8685 23.1749C25.8685 32.9367 33.8684 40.85 43.7368 40.85L44.7172 40.8237C54.1298 40.3204 61.6053 32.6112 61.6053 23.1749ZM53.9474 83.775C53.9474 88.3212 55.0516 92.6122 57.0091 96.4001H8V78.2201C8 63.5357 19.4074 51.5622 33.6978 50.9728L34.8027 50.9501H52.6712C59.7246 50.9501 66.1419 53.7223 70.9276 58.254C60.9398 62.51 53.9474 72.3348 53.9474 83.775ZM82.0263 61.0499C69.3384 61.0499 59.0526 71.2243 59.0526 83.775C59.0526 96.3256 69.3384 106.5 82.0263 106.5C94.7145 106.5 105 96.3256 105 83.775C105 71.2243 94.7145 61.0499 82.0263 61.0499ZM97.0461 75.9071L76.9213 95.8138L67.0072 86.007L71.5196 81.5434L76.9213 86.8866L92.5337 71.4436L97.0461 75.9071Z" fill="#1E4732"/>
</g>
</svg>
